<svg width="14" height="10" viewBox="0 0 14 10" fill="none" xmlns="http://www.w3.org/2000/svg">
<path d="M1.43036 4.44279C1.12262 4.44279 0.873145 4.69226 0.873145 5C0.873145 5.30774 1.12262 5.55721 1.43036 5.55721V4.44279ZM12.9686 5.39401C13.1863 5.1764 13.1863 4.8236 12.9686 4.60599L9.42256 1.0599C9.20495 0.842297 8.85214 0.842297 8.63454 1.0599C8.41693 1.27751 8.41693 1.63032 8.63454 1.84792L11.7866 5L8.63454 8.15208C8.41693 8.36968 8.41693 8.72249 8.63454 8.9401C8.85214 9.1577 9.20495 9.1577 9.42256 8.9401L12.9686 5.39401ZM1.43036 5.55721H12.5746V4.44279H1.43036V5.55721Z" fill="white"/>
</svg>
