<svg width="16" height="16" viewBox="0 0 16 16" fill="none" xmlns="http://www.w3.org/2000/svg">
<path fill-rule="evenodd" clip-rule="evenodd" d="M15.9446 7.97229C15.9446 3.56966 12.3749 0 7.97229 0C3.56966 0 0 3.56966 0 7.97229C0 11.9511 2.91494 15.2495 6.72674 15.8482V10.2773H4.70198V7.97229H6.72674V6.21548C6.72674 4.21762 7.91736 3.11332 9.73805 3.11332C10.6103 3.11332 11.5229 3.26915 11.5229 3.26915V5.23114H10.5172C9.5273 5.23114 9.21784 5.84552 9.21784 6.47669V7.97223H11.4287L11.0755 10.2773H9.21778V15.8482C13.0296 15.2505 15.9445 11.9522 15.9445 7.97223L15.9446 7.97229Z" fill="#1977F3"/>
<path fill-rule="evenodd" clip-rule="evenodd" d="M11.0755 10.2772L11.4287 7.97219H9.21789V6.47665C9.21789 5.84658 9.52618 5.2311 10.5173 5.2311H11.5229V3.26911C11.5229 3.26911 10.6104 3.11328 9.7381 3.11328C7.91741 3.11328 6.72679 4.21648 6.72679 6.21544V7.97225H4.70203V10.2773H6.72679V15.8482C7.13262 15.912 7.54856 15.9445 7.97234 15.9445C8.39613 15.9445 8.81207 15.9109 9.21789 15.8482V10.2773H11.0756L11.0755 10.2772Z" fill="#FEFEFE"/>
</svg>
